<mxfile host="Electron" modified="2024-05-15T15:49:28.092Z" agent="Mozilla/5.0 (Windows NT 10.0; Win64; x64) AppleWebKit/537.36 (KHTML, like Gecko) draw.io/24.2.5 Chrome/120.0.6099.109 Electron/28.1.0 Safari/537.36" etag="KCoOHtSBzNqHJOFXkugO" version="24.2.5" type="device">
  <diagram name="Page-1" id="ad52d381-51e7-2e0d-a935-2d0ddd2fd229">
    <mxGraphModel dx="2150" dy="629" grid="1" gridSize="10" guides="1" tooltips="1" connect="1" arrows="1" fold="1" page="1" pageScale="1" pageWidth="1100" pageHeight="850" background="none" math="0" shadow="0">
      <root>
        <mxCell id="0" />
        <mxCell id="1" parent="0" />
        <mxCell id="2c924340bb9dbf6c-1" value="BGV123 (string)" style="whiteSpace=wrap;html=1;rounded=1;shadow=1;comic=0;labelBackgroundColor=none;strokeWidth=2;fontFamily=Verdana;fontSize=12;align=center;arcSize=50;fillColor=#ffff88;strokeColor=#36393d;" parent="1" vertex="1">
          <mxGeometry x="40" y="20" width="110" height="40" as="geometry" />
        </mxCell>
        <mxCell id="2c924340bb9dbf6c-2" value="&lt;font style=&quot;font-size: 14px;&quot;&gt;my:Identifier&lt;/font&gt;" style="ellipse;whiteSpace=wrap;html=1;rounded=1;shadow=1;comic=0;labelBackgroundColor=none;strokeWidth=2;fontFamily=Verdana;fontSize=12;align=center;fillColor=#b0e3e6;strokeColor=#0e8088;" parent="1" vertex="1">
          <mxGeometry x="120" y="120" width="120" height="80" as="geometry" />
        </mxCell>
        <mxCell id="axq8ysBbw0fzH3EdOtc4-35" style="edgeStyle=orthogonalEdgeStyle;rounded=0;orthogonalLoop=1;jettySize=auto;html=1;exitX=1;exitY=0.5;exitDx=0;exitDy=0;entryX=0;entryY=0;entryDx=0;entryDy=0;" edge="1" parent="1" source="2c924340bb9dbf6c-4" target="qhhZF5nLOxmZ0tWzn2sf-29">
          <mxGeometry relative="1" as="geometry">
            <mxPoint x="610" y="360" as="targetPoint" />
            <Array as="points">
              <mxPoint x="423" y="360" />
              <mxPoint x="423" y="361" />
              <mxPoint x="606" y="361" />
            </Array>
          </mxGeometry>
        </mxCell>
        <mxCell id="axq8ysBbw0fzH3EdOtc4-45" style="edgeStyle=orthogonalEdgeStyle;rounded=0;orthogonalLoop=1;jettySize=auto;html=1;exitX=0;exitY=1;exitDx=0;exitDy=0;entryX=0;entryY=0.5;entryDx=0;entryDy=0;" edge="1" parent="1" source="2c924340bb9dbf6c-4" target="qhhZF5nLOxmZ0tWzn2sf-15">
          <mxGeometry relative="1" as="geometry">
            <Array as="points">
              <mxPoint x="140" y="386" />
              <mxPoint x="140" y="490" />
            </Array>
          </mxGeometry>
        </mxCell>
        <mxCell id="2c924340bb9dbf6c-4" value="&lt;font style=&quot;font-size: 14px;&quot;&gt;my:Germplasm&lt;/font&gt;" style="ellipse;whiteSpace=wrap;html=1;rounded=1;shadow=1;comic=0;labelBackgroundColor=none;strokeWidth=2;fontFamily=Verdana;fontSize=12;align=center;fillColor=#b0e3e6;strokeColor=#0e8088;" parent="1" vertex="1">
          <mxGeometry x="120" y="300" width="115" height="100" as="geometry" />
        </mxCell>
        <mxCell id="axq8ysBbw0fzH3EdOtc4-12" style="edgeStyle=orthogonalEdgeStyle;rounded=0;orthogonalLoop=1;jettySize=auto;html=1;exitX=1;exitY=0;exitDx=0;exitDy=0;entryX=0.5;entryY=1;entryDx=0;entryDy=0;" edge="1" parent="1" source="2c924340bb9dbf6c-5" target="qhhZF5nLOxmZ0tWzn2sf-35">
          <mxGeometry relative="1" as="geometry" />
        </mxCell>
        <mxCell id="axq8ysBbw0fzH3EdOtc4-31" style="edgeStyle=orthogonalEdgeStyle;rounded=0;orthogonalLoop=1;jettySize=auto;html=1;exitX=1;exitY=0.5;exitDx=0;exitDy=0;" edge="1" parent="1" source="2c924340bb9dbf6c-5" target="qhhZF5nLOxmZ0tWzn2sf-28">
          <mxGeometry relative="1" as="geometry" />
        </mxCell>
        <mxCell id="2c924340bb9dbf6c-5" value="&lt;span&gt;&lt;font style=&quot;font-size: 14px;&quot;&gt;my:PlantIdentificationProcess&lt;/font&gt;&lt;/span&gt;" style="ellipse;whiteSpace=wrap;html=1;rounded=1;shadow=1;comic=0;labelBackgroundColor=none;strokeWidth=2;fontFamily=Verdana;fontSize=12;align=center;fillColor=#b0e3e6;strokeColor=#0e8088;" parent="1" vertex="1">
          <mxGeometry x="355" y="190" width="230" height="80" as="geometry" />
        </mxCell>
        <mxCell id="2c924340bb9dbf6c-28" value="has value&lt;div&gt;SIO_000300&lt;/div&gt;" style="edgeStyle=none;rounded=1;html=1;labelBackgroundColor=none;startArrow=none;startFill=0;startSize=5;endArrow=classicThin;endFill=1;endSize=5;jettySize=auto;orthogonalLoop=1;strokeColor=#000000;strokeWidth=1;fontFamily=Verdana;fontSize=12" parent="1" source="2c924340bb9dbf6c-2" target="2c924340bb9dbf6c-1" edge="1">
          <mxGeometry x="-0.3181" y="-38" relative="1" as="geometry">
            <mxPoint as="offset" />
          </mxGeometry>
        </mxCell>
        <mxCell id="2c924340bb9dbf6c-33" value="is input in&lt;div&gt;SIO_000231&lt;/div&gt;" style="edgeStyle=none;rounded=1;html=1;labelBackgroundColor=none;startArrow=none;startFill=0;startSize=5;endArrow=classicThin;endFill=1;endSize=5;jettySize=auto;orthogonalLoop=1;strokeColor=#000000;strokeWidth=1;fontFamily=Verdana;fontSize=12;exitX=1;exitY=0;exitDx=0;exitDy=0;entryX=0.226;entryY=0.945;entryDx=0;entryDy=0;entryPerimeter=0;" parent="1" source="2c924340bb9dbf6c-4" target="2c924340bb9dbf6c-5" edge="1">
          <mxGeometry x="-0.0387" y="32" relative="1" as="geometry">
            <mxPoint as="offset" />
          </mxGeometry>
        </mxCell>
        <mxCell id="2c924340bb9dbf6c-55" value="Germplasm&lt;div&gt;EFO_0007059&lt;/div&gt;" style="whiteSpace=wrap;html=1;rounded=1;shadow=1;comic=0;labelBackgroundColor=none;strokeWidth=2;fontFamily=Verdana;fontSize=12;align=center;arcSize=50;fillColor=#d5e8d4;strokeColor=#82b366;" parent="1" vertex="1">
          <mxGeometry y="235" width="110" height="50" as="geometry" />
        </mxCell>
        <mxCell id="qhhZF5nLOxmZ0tWzn2sf-46" style="edgeStyle=orthogonalEdgeStyle;rounded=0;orthogonalLoop=1;jettySize=auto;html=1;exitX=0.5;exitY=1;exitDx=0;exitDy=0;" parent="1" source="qhhZF5nLOxmZ0tWzn2sf-15" target="qhhZF5nLOxmZ0tWzn2sf-19" edge="1">
          <mxGeometry relative="1" as="geometry" />
        </mxCell>
        <mxCell id="qhhZF5nLOxmZ0tWzn2sf-47" style="edgeStyle=orthogonalEdgeStyle;rounded=0;orthogonalLoop=1;jettySize=auto;html=1;exitX=0;exitY=0.5;exitDx=0;exitDy=0;entryX=1;entryY=0.5;entryDx=0;entryDy=0;" parent="1" source="qhhZF5nLOxmZ0tWzn2sf-15" target="qhhZF5nLOxmZ0tWzn2sf-32" edge="1">
          <mxGeometry relative="1" as="geometry">
            <Array as="points">
              <mxPoint x="270" y="550" />
              <mxPoint x="170" y="550" />
            </Array>
          </mxGeometry>
        </mxCell>
        <mxCell id="qhhZF5nLOxmZ0tWzn2sf-15" value="&lt;font style=&quot;font-size: 14px;&quot;&gt;this:$(bgvid)#&lt;/font&gt;&lt;div style=&quot;font-size: 14px;&quot;&gt;&lt;font style=&quot;font-size: 14px;&quot;&gt;Collection&lt;/font&gt;&lt;/div&gt;" style="ellipse;whiteSpace=wrap;html=1;rounded=1;shadow=1;comic=0;labelBackgroundColor=none;strokeWidth=2;fontFamily=Verdana;fontSize=12;align=center;fillColor=#ffe6cc;strokeColor=#d79b00;" parent="1" vertex="1">
          <mxGeometry x="270" y="450" width="120" height="80" as="geometry" />
        </mxCell>
        <mxCell id="qhhZF5nLOxmZ0tWzn2sf-19" value="Sampling&lt;div&gt;SIO_001049&lt;/div&gt;" style="whiteSpace=wrap;html=1;rounded=1;shadow=1;comic=0;labelBackgroundColor=none;strokeWidth=2;fontFamily=Verdana;fontSize=12;align=center;arcSize=50;fillColor=#d5e8d4;strokeColor=#82b366;" parent="1" vertex="1">
          <mxGeometry x="340" y="580" width="120" height="40" as="geometry" />
        </mxCell>
        <mxCell id="axq8ysBbw0fzH3EdOtc4-17" style="edgeStyle=orthogonalEdgeStyle;rounded=0;orthogonalLoop=1;jettySize=auto;html=1;exitX=0;exitY=0;exitDx=0;exitDy=0;entryX=0.5;entryY=1;entryDx=0;entryDy=0;" edge="1" parent="1" source="qhhZF5nLOxmZ0tWzn2sf-28" target="axq8ysBbw0fzH3EdOtc4-14">
          <mxGeometry relative="1" as="geometry">
            <Array as="points">
              <mxPoint x="745" y="120" />
              <mxPoint x="725" y="120" />
            </Array>
          </mxGeometry>
        </mxCell>
        <mxCell id="axq8ysBbw0fzH3EdOtc4-19" style="edgeStyle=orthogonalEdgeStyle;rounded=0;orthogonalLoop=1;jettySize=auto;html=1;exitX=1;exitY=0;exitDx=0;exitDy=0;entryX=0;entryY=0.5;entryDx=0;entryDy=0;" edge="1" parent="1" source="qhhZF5nLOxmZ0tWzn2sf-28" target="axq8ysBbw0fzH3EdOtc4-13">
          <mxGeometry relative="1" as="geometry" />
        </mxCell>
        <mxCell id="axq8ysBbw0fzH3EdOtc4-20" style="edgeStyle=orthogonalEdgeStyle;rounded=0;orthogonalLoop=1;jettySize=auto;html=1;exitX=1;exitY=1;exitDx=0;exitDy=0;" edge="1" parent="1" source="qhhZF5nLOxmZ0tWzn2sf-28" target="axq8ysBbw0fzH3EdOtc4-16">
          <mxGeometry relative="1" as="geometry" />
        </mxCell>
        <mxCell id="qhhZF5nLOxmZ0tWzn2sf-28" value="&lt;span style=&quot;font-size: 14px;&quot;&gt;my:PlantIdentification&lt;/span&gt;" style="ellipse;whiteSpace=wrap;html=1;rounded=1;shadow=1;comic=0;labelBackgroundColor=none;strokeWidth=2;fontFamily=Verdana;fontSize=12;align=center;fillColor=#b0e3e6;strokeColor=#0e8088;" parent="1" vertex="1">
          <mxGeometry x="720" y="190" width="170" height="50" as="geometry" />
        </mxCell>
        <mxCell id="qhhZF5nLOxmZ0tWzn2sf-88" style="edgeStyle=orthogonalEdgeStyle;rounded=0;orthogonalLoop=1;jettySize=auto;html=1;exitX=0.5;exitY=0;exitDx=0;exitDy=0;entryX=0.5;entryY=1;entryDx=0;entryDy=0;" parent="1" source="qhhZF5nLOxmZ0tWzn2sf-29" target="qhhZF5nLOxmZ0tWzn2sf-40" edge="1">
          <mxGeometry relative="1" as="geometry" />
        </mxCell>
        <mxCell id="qhhZF5nLOxmZ0tWzn2sf-98" style="edgeStyle=orthogonalEdgeStyle;rounded=0;orthogonalLoop=1;jettySize=auto;html=1;exitX=1;exitY=0;exitDx=0;exitDy=0;entryX=0;entryY=0.5;entryDx=0;entryDy=0;" parent="1" source="qhhZF5nLOxmZ0tWzn2sf-29" target="qhhZF5nLOxmZ0tWzn2sf-97" edge="1">
          <mxGeometry relative="1" as="geometry">
            <Array as="points">
              <mxPoint x="820" y="421" />
              <mxPoint x="820" y="500" />
            </Array>
          </mxGeometry>
        </mxCell>
        <mxCell id="qhhZF5nLOxmZ0tWzn2sf-29" value="&lt;span&gt;&lt;font style=&quot;font-size: 14px;&quot;&gt;my:Endangerment&lt;/font&gt;&lt;/span&gt;&lt;div&gt;&lt;span&gt;&lt;font style=&quot;font-size: 14px;&quot;&gt;AssessmentProcess&lt;/font&gt;&lt;/span&gt;&lt;/div&gt;" style="ellipse;whiteSpace=wrap;html=1;rounded=1;shadow=1;comic=0;labelBackgroundColor=none;strokeWidth=2;fontFamily=Verdana;fontSize=12;align=center;fillColor=#b0e3e6;strokeColor=#0e8088;" parent="1" vertex="1">
          <mxGeometry x="580" y="405" width="180" height="105" as="geometry" />
        </mxCell>
        <mxCell id="qhhZF5nLOxmZ0tWzn2sf-32" value="&lt;span&gt;comment&amp;nbsp;&lt;/span&gt;&lt;div&gt;&lt;span&gt;(string)&lt;/span&gt;&lt;/div&gt;" style="whiteSpace=wrap;html=1;rounded=1;shadow=1;comic=0;labelBackgroundColor=none;strokeWidth=2;fontFamily=Verdana;fontSize=12;align=center;arcSize=50;fillColor=#ffff88;strokeColor=#36393d;" parent="1" vertex="1">
          <mxGeometry x="40" y="560" width="110" height="40" as="geometry" />
        </mxCell>
        <mxCell id="qhhZF5nLOxmZ0tWzn2sf-34" value="Process&lt;div&gt;SIO_000006&lt;/div&gt;" style="whiteSpace=wrap;html=1;rounded=1;shadow=1;comic=0;labelBackgroundColor=none;strokeWidth=2;fontFamily=Verdana;fontSize=12;align=center;arcSize=50;fillColor=#d5e8d4;strokeColor=#82b366;" parent="1" vertex="1">
          <mxGeometry x="295" y="50" width="110" height="50" as="geometry" />
        </mxCell>
        <mxCell id="qhhZF5nLOxmZ0tWzn2sf-35" value="prov:Activity" style="whiteSpace=wrap;html=1;rounded=1;shadow=1;comic=0;labelBackgroundColor=none;strokeWidth=2;fontFamily=Verdana;fontSize=12;align=center;arcSize=50;fillColor=#d5e8d4;strokeColor=#82b366;" parent="1" vertex="1">
          <mxGeometry x="510" y="15" width="110" height="50" as="geometry" />
        </mxCell>
        <mxCell id="qhhZF5nLOxmZ0tWzn2sf-40" value="Process&lt;div&gt;SIO_000006&lt;/div&gt;" style="whiteSpace=wrap;html=1;rounded=1;shadow=1;comic=0;labelBackgroundColor=none;strokeWidth=2;fontFamily=Verdana;fontSize=12;align=center;arcSize=50;fillColor=#d5e8d4;strokeColor=#82b366;" parent="1" vertex="1">
          <mxGeometry x="700" y="280" width="100" height="40" as="geometry" />
        </mxCell>
        <mxCell id="qhhZF5nLOxmZ0tWzn2sf-48" style="edgeStyle=orthogonalEdgeStyle;rounded=0;orthogonalLoop=1;jettySize=auto;html=1;entryX=0.591;entryY=1;entryDx=0;entryDy=0;entryPerimeter=0;" parent="1" source="2c924340bb9dbf6c-5" target="qhhZF5nLOxmZ0tWzn2sf-34" edge="1">
          <mxGeometry relative="1" as="geometry">
            <Array as="points">
              <mxPoint x="380" y="145" />
              <mxPoint x="360" y="145" />
            </Array>
          </mxGeometry>
        </mxCell>
        <mxCell id="qhhZF5nLOxmZ0tWzn2sf-71" style="edgeStyle=orthogonalEdgeStyle;rounded=0;orthogonalLoop=1;jettySize=auto;html=1;exitX=0;exitY=0;exitDx=0;exitDy=0;entryX=0.847;entryY=1;entryDx=0;entryDy=0;entryPerimeter=0;" parent="1" source="2c924340bb9dbf6c-4" target="2c924340bb9dbf6c-55" edge="1">
          <mxGeometry relative="1" as="geometry" />
        </mxCell>
        <mxCell id="qhhZF5nLOxmZ0tWzn2sf-83" value="rdfs:label" style="text;strokeColor=none;align=center;fillColor=none;html=1;verticalAlign=middle;whiteSpace=wrap;rounded=0;" parent="1" vertex="1">
          <mxGeometry x="190" y="520" width="60" height="30" as="geometry" />
        </mxCell>
        <mxCell id="qhhZF5nLOxmZ0tWzn2sf-85" value="has start time&lt;div&gt;SIO_000680&lt;/div&gt;" style="text;strokeColor=none;align=center;fillColor=none;html=1;verticalAlign=middle;whiteSpace=wrap;rounded=0;" parent="1" vertex="1">
          <mxGeometry x="475" y="90" width="80" height="30" as="geometry" />
        </mxCell>
        <mxCell id="qhhZF5nLOxmZ0tWzn2sf-86" value="has output&lt;div&gt;SIO_000229&lt;/div&gt;" style="text;strokeColor=none;align=center;fillColor=none;html=1;verticalAlign=middle;whiteSpace=wrap;rounded=0;" parent="1" vertex="1">
          <mxGeometry x="200" y="415" width="60" height="35" as="geometry" />
        </mxCell>
        <mxCell id="qhhZF5nLOxmZ0tWzn2sf-87" value="prov:wasUsedBy" style="text;strokeColor=none;align=center;fillColor=none;html=1;verticalAlign=middle;whiteSpace=wrap;rounded=0;" parent="1" vertex="1">
          <mxGeometry x="430" y="445" width="60" height="30" as="geometry" />
        </mxCell>
        <mxCell id="qhhZF5nLOxmZ0tWzn2sf-89" value="has identifier&lt;div&gt;SIO_000671&lt;/div&gt;" style="text;strokeColor=none;align=center;fillColor=none;html=1;verticalAlign=middle;whiteSpace=wrap;rounded=0;" parent="1" vertex="1">
          <mxGeometry x="120" y="210" width="90" height="30" as="geometry" />
        </mxCell>
        <mxCell id="qhhZF5nLOxmZ0tWzn2sf-97" value="&lt;span&gt;&lt;font style=&quot;font-size: 14px;&quot;&gt;my:EndargementCategory&lt;/font&gt;&lt;/span&gt;" style="ellipse;whiteSpace=wrap;html=1;rounded=1;shadow=1;comic=0;labelBackgroundColor=none;strokeWidth=2;fontFamily=Verdana;fontSize=12;align=center;fillColor=#b0e3e6;strokeColor=#0e8088;" parent="1" vertex="1">
          <mxGeometry x="860" y="460" width="210" height="80" as="geometry" />
        </mxCell>
        <mxCell id="axq8ysBbw0fzH3EdOtc4-5" value="prov:wasGeneratedBy" style="text;strokeColor=none;align=center;fillColor=none;html=1;verticalAlign=middle;whiteSpace=wrap;rounded=0;" vertex="1" parent="1">
          <mxGeometry x="40" y="430" width="60" height="30" as="geometry" />
        </mxCell>
        <mxCell id="axq8ysBbw0fzH3EdOtc4-8" value="prov:wasUsedBy" style="text;strokeColor=none;align=center;fillColor=none;html=1;verticalAlign=middle;whiteSpace=wrap;rounded=0;" vertex="1" parent="1">
          <mxGeometry x="345" y="305" width="60" height="30" as="geometry" />
        </mxCell>
        <mxCell id="axq8ysBbw0fzH3EdOtc4-9" style="edgeStyle=orthogonalEdgeStyle;rounded=0;orthogonalLoop=1;jettySize=auto;html=1;exitX=0.97;exitY=0.34;exitDx=0;exitDy=0;entryX=0.5;entryY=1;entryDx=0;entryDy=0;exitPerimeter=0;" edge="1" parent="1" source="2c924340bb9dbf6c-4" target="2c924340bb9dbf6c-5">
          <mxGeometry relative="1" as="geometry" />
        </mxCell>
        <mxCell id="axq8ysBbw0fzH3EdOtc4-10" value="has output&lt;div&gt;SIO_000229&lt;/div&gt;" style="text;strokeColor=none;align=center;fillColor=none;html=1;verticalAlign=middle;whiteSpace=wrap;rounded=0;" vertex="1" parent="1">
          <mxGeometry x="610" y="180" width="60" height="30" as="geometry" />
        </mxCell>
        <mxCell id="axq8ysBbw0fzH3EdOtc4-13" value="&lt;div&gt;&lt;br&gt;&lt;/div&gt;Vernacular name&amp;nbsp;&lt;div&gt;&lt;br&gt;&lt;/div&gt;" style="whiteSpace=wrap;html=1;rounded=1;shadow=1;comic=0;labelBackgroundColor=none;strokeWidth=2;fontFamily=Verdana;fontSize=12;align=center;arcSize=50;fillColor=#ffff88;strokeColor=#36393d;" vertex="1" parent="1">
          <mxGeometry x="990" y="110" width="110" height="40" as="geometry" />
        </mxCell>
        <mxCell id="axq8ysBbw0fzH3EdOtc4-14" value="Scientific name&amp;nbsp;" style="whiteSpace=wrap;html=1;rounded=1;shadow=1;comic=0;labelBackgroundColor=none;strokeWidth=2;fontFamily=Verdana;fontSize=12;align=center;arcSize=50;fillColor=#ffff88;strokeColor=#36393d;" vertex="1" parent="1">
          <mxGeometry x="670" y="25" width="110" height="40" as="geometry" />
        </mxCell>
        <mxCell id="axq8ysBbw0fzH3EdOtc4-15" value="&lt;div&gt;&lt;br&gt;&lt;/div&gt;Scientific name authorship&lt;div&gt;&lt;br&gt;&lt;/div&gt;" style="whiteSpace=wrap;html=1;rounded=1;shadow=1;comic=0;labelBackgroundColor=none;strokeWidth=2;fontFamily=Verdana;fontSize=12;align=center;arcSize=50;fillColor=#ffff88;strokeColor=#36393d;" vertex="1" parent="1">
          <mxGeometry x="897.5" y="10" width="115" height="50" as="geometry" />
        </mxCell>
        <mxCell id="axq8ysBbw0fzH3EdOtc4-16" value="Name&lt;div&gt;SIO_000116&lt;/div&gt;" style="whiteSpace=wrap;html=1;rounded=1;shadow=1;comic=0;labelBackgroundColor=none;strokeWidth=2;fontFamily=Verdana;fontSize=12;align=center;arcSize=50;fillColor=#d5e8d4;strokeColor=#82b366;" vertex="1" parent="1">
          <mxGeometry x="910" y="285" width="110" height="50" as="geometry" />
        </mxCell>
        <mxCell id="axq8ysBbw0fzH3EdOtc4-18" style="edgeStyle=orthogonalEdgeStyle;rounded=0;orthogonalLoop=1;jettySize=auto;html=1;exitX=0.5;exitY=0;exitDx=0;exitDy=0;entryX=0.391;entryY=1.08;entryDx=0;entryDy=0;entryPerimeter=0;" edge="1" parent="1" source="qhhZF5nLOxmZ0tWzn2sf-28" target="axq8ysBbw0fzH3EdOtc4-15">
          <mxGeometry relative="1" as="geometry">
            <Array as="points">
              <mxPoint x="805" y="100" />
              <mxPoint x="943" y="100" />
            </Array>
          </mxGeometry>
        </mxCell>
        <mxCell id="axq8ysBbw0fzH3EdOtc4-21" value="dwc:vernacularName&lt;span style=&quot;color: rgba(0, 0, 0, 0); font-family: monospace; font-size: 0px; text-align: start; text-wrap: nowrap;&quot;&gt;%3CmxGraphModel%3E%3Croot%3E%3CmxCell%20id%3D%220%22%2F%3E%3CmxCell%20id%3D%221%22%20parent%3D%220%22%2F%3E%3CmxCell%20id%3D%222%22%20value%3D%22Country%26lt%3Bdiv%26gt%3BSIO_000664%26lt%3B%2Fdiv%26gt%3B%22%20style%3D%22whiteSpace%3Dwrap%3Bhtml%3D1%3Brounded%3D1%3Bshadow%3D1%3Bcomic%3D0%3BlabelBackgroundColor%3Dnone%3BstrokeWidth%3D2%3BfontFamily%3DVerdana%3BfontSize%3D12%3Balign%3Dcenter%3BarcSize%3D50%3BfillColor%3D%23d5e8d4%3BstrokeColor%3D%2382b366%3B%22%20vertex%3D%221%22%20parent%3D%221%22%3E%3CmxGeometry%20x%3D%22880%22%20y%3D%2250%22%20width%3D%22110%22%20height%3D%2250%22%20as%3D%22geometry%22%2F%3E%3C%2FmxCell%3E%3C%2Froot%3E%3C%2FmxGraphModel%3E&lt;/span&gt;" style="text;strokeColor=none;align=center;fillColor=none;html=1;verticalAlign=middle;whiteSpace=wrap;rounded=0;" vertex="1" parent="1">
          <mxGeometry x="980" y="160" width="60" height="30" as="geometry" />
        </mxCell>
        <mxCell id="axq8ysBbw0fzH3EdOtc4-22" value="dwc:scientificName" style="text;strokeColor=none;align=center;fillColor=none;html=1;verticalAlign=middle;whiteSpace=wrap;rounded=0;" vertex="1" parent="1">
          <mxGeometry x="635" y="90" width="60" height="30" as="geometry" />
        </mxCell>
        <mxCell id="axq8ysBbw0fzH3EdOtc4-23" value="dwc:scientificNameAuthorship" style="text;strokeColor=none;align=center;fillColor=none;html=1;verticalAlign=middle;whiteSpace=wrap;rounded=0;" vertex="1" parent="1">
          <mxGeometry x="810" y="65" width="70" height="25" as="geometry" />
        </mxCell>
        <mxCell id="axq8ysBbw0fzH3EdOtc4-27" value="has output&lt;div&gt;SIO_000229&lt;/div&gt;" style="text;strokeColor=none;align=center;fillColor=none;html=1;verticalAlign=middle;whiteSpace=wrap;rounded=0;" vertex="1" parent="1">
          <mxGeometry x="750" y="385" width="80" height="40" as="geometry" />
        </mxCell>
        <mxCell id="axq8ysBbw0fzH3EdOtc4-28" value="has value&lt;div&gt;SIO_000300&lt;/div&gt;" style="text;strokeColor=none;align=center;fillColor=none;html=1;verticalAlign=middle;whiteSpace=wrap;rounded=0;" vertex="1" parent="1">
          <mxGeometry x="970" y="590" width="80" height="40" as="geometry" />
        </mxCell>
        <mxCell id="axq8ysBbw0fzH3EdOtc4-29" value="prov:Activity" style="whiteSpace=wrap;html=1;rounded=1;shadow=1;comic=0;labelBackgroundColor=none;strokeWidth=2;fontFamily=Verdana;fontSize=12;align=center;arcSize=50;fillColor=#d5e8d4;strokeColor=#82b366;" vertex="1" parent="1">
          <mxGeometry x="610" y="600" width="110" height="50" as="geometry" />
        </mxCell>
        <mxCell id="axq8ysBbw0fzH3EdOtc4-32" style="edgeStyle=orthogonalEdgeStyle;rounded=0;orthogonalLoop=1;jettySize=auto;html=1;exitX=0;exitY=0;exitDx=0;exitDy=0;entryX=0.602;entryY=0.996;entryDx=0;entryDy=0;entryPerimeter=0;" edge="1" parent="1" source="qhhZF5nLOxmZ0tWzn2sf-15" target="2c924340bb9dbf6c-4">
          <mxGeometry relative="1" as="geometry" />
        </mxCell>
        <mxCell id="axq8ysBbw0fzH3EdOtc4-33" style="edgeStyle=orthogonalEdgeStyle;rounded=0;orthogonalLoop=1;jettySize=auto;html=1;exitX=1;exitY=1;exitDx=0;exitDy=0;entryX=0;entryY=0.682;entryDx=0;entryDy=0;entryPerimeter=0;" edge="1" parent="1" source="2c924340bb9dbf6c-4" target="qhhZF5nLOxmZ0tWzn2sf-29">
          <mxGeometry relative="1" as="geometry" />
        </mxCell>
        <mxCell id="axq8ysBbw0fzH3EdOtc4-36" value="is input in&lt;div&gt;SIO_00231&lt;/div&gt;" style="text;strokeColor=none;align=center;fillColor=none;html=1;verticalAlign=middle;whiteSpace=wrap;rounded=0;" vertex="1" parent="1">
          <mxGeometry x="495" y="330" width="60" height="30" as="geometry" />
        </mxCell>
        <mxCell id="axq8ysBbw0fzH3EdOtc4-40" value="Data deficient/Least concern/Near threatened/Vulnerable/Critically endangered/Extinct in the wild/Extinc" style="whiteSpace=wrap;html=1;rounded=1;shadow=1;comic=0;labelBackgroundColor=none;strokeWidth=2;fontFamily=Verdana;fontSize=12;align=center;arcSize=50;fillColor=#ffff88;strokeColor=#36393d;" vertex="1" parent="1">
          <mxGeometry x="830" y="690" width="250" height="69" as="geometry" />
        </mxCell>
        <mxCell id="axq8ysBbw0fzH3EdOtc4-42" style="edgeStyle=orthogonalEdgeStyle;rounded=0;orthogonalLoop=1;jettySize=auto;html=1;exitX=0.5;exitY=1;exitDx=0;exitDy=0;entryX=0.541;entryY=-0.006;entryDx=0;entryDy=0;entryPerimeter=0;" edge="1" parent="1" source="qhhZF5nLOxmZ0tWzn2sf-97" target="axq8ysBbw0fzH3EdOtc4-40">
          <mxGeometry relative="1" as="geometry" />
        </mxCell>
        <mxCell id="axq8ysBbw0fzH3EdOtc4-43" style="edgeStyle=orthogonalEdgeStyle;rounded=0;orthogonalLoop=1;jettySize=auto;html=1;exitX=0.5;exitY=1;exitDx=0;exitDy=0;entryX=0.422;entryY=-0.064;entryDx=0;entryDy=0;entryPerimeter=0;" edge="1" parent="1" source="qhhZF5nLOxmZ0tWzn2sf-29" target="axq8ysBbw0fzH3EdOtc4-29">
          <mxGeometry relative="1" as="geometry" />
        </mxCell>
        <mxCell id="axq8ysBbw0fzH3EdOtc4-46" style="edgeStyle=orthogonalEdgeStyle;rounded=0;orthogonalLoop=1;jettySize=auto;html=1;exitX=0.5;exitY=0;exitDx=0;exitDy=0;entryX=0.79;entryY=0.97;entryDx=0;entryDy=0;entryPerimeter=0;" edge="1" parent="1" source="2c924340bb9dbf6c-4" target="2c924340bb9dbf6c-2">
          <mxGeometry relative="1" as="geometry" />
        </mxCell>
      </root>
    </mxGraphModel>
  </diagram>
</mxfile>
